# xmcd
#
# Track frame offsets: 
#        150
#        17226
#        33286
#        47231
#        62362
#        84812
#        105474
#        123077
#        136746
#        155521
#
# Disc length: 2321 seconds
#
# Revision: 2
# Processed by: cddbd v1.5.2PL0 Copyright (c) Steve Scherf et al.
# Submitted via: ExactAudioCopy v1.3
#
DISCID=6d090f0a
DTITLE=The Delta Saints - Bones
DYEAR=2015
DGENRE=Delta Blues
TTITLE0=Sometimes I Worry
TTITLE1=Bones
TTITLE2=Heavy Hammer
TTITLE3=Zydeco
TTITLE4=Butte La Rose
TTITLE5=Dust
TTITLE6=My Love
TTITLE7=Into The Morning
TTITLE8=Soft Spoken
TTITLE9=Berlin
EXTD=
EXTT0=
EXTT1=
EXTT2=
EXTT3=
EXTT4=
EXTT5=
EXTT6=
EXTT7=
EXTT8=
EXTT9=
PLAYORDER=
